<?xml version="1.0" encoding="UTF-8"?>
<svg width="18px" height="26px" viewBox="0 0 18 26" version="1.1" xmlns="http://www.w3.org/2000/svg" xmlns:xlink="http://www.w3.org/1999/xlink">
    <!-- Generator: Sketch 59 (86127) - https://sketch.com -->
    <title>Shape</title>
    <desc>Created with Sketch.</desc>
    <g id="web" stroke="none" stroke-width="1" fill="none" fill-rule="evenodd">
        <g id="1680" transform="translate(-1081.000000, -1094.000000)" fill="#FFFFFF" fill-rule="nonzero">
            <g id="benefits" transform="translate(292.000000, 1061.000000)">
                <g id="Group-39" transform="translate(755.000000, 0.000000)">
                    <g id="Group-24">
                        <g id="money" transform="translate(34.000000, 33.000000)">
                            <path d="M0.522549925,0 L5.01841109,15.2851562 L1.57627987,15.2851562 L9.02252495,26 L16.46882,15.2851562 L13.0266888,15.2851562 L17.5225499,0 L0.522549925,0 Z M9.19741395,6.92707031 C9.97304991,7.11678906 11.2704555,7.43366406 11.2704555,9.19140625 C11.2704555,10.1831641 10.642134,11.02075 9.77183514,11.3362539 L9.77183514,12.2382812 L8.27321475,12.2382812 L8.27321475,11.3362539 C7.40291594,11.02075 6.77459437,10.1831641 6.77459437,9.19140625 L8.27321475,9.19140625 C8.27321475,9.61167188 8.60910554,9.953125 9.02252495,9.953125 C9.43594436,9.953125 9.77183514,9.61167188 9.77183514,9.19140625 C9.77183514,8.69151563 9.6767227,8.61117969 8.84763595,8.40886719 C8.07199999,8.21914844 6.77459437,7.90227344 6.77459437,6.14453125 C6.77459437,5.15277344 7.40291594,4.3151875 8.27321475,3.99968359 L8.27321475,3.09765625 L9.77183514,3.09765625 L9.77183514,3.99968359 C10.642134,4.3151875 11.2704555,5.15277344 11.2704555,6.14453125 L9.77183514,6.14453125 C9.77183514,5.72426563 9.43594436,5.3828125 9.02252495,5.3828125 C8.60910554,5.3828125 8.27321475,5.72426563 8.27321475,6.14453125 C8.27321475,6.64442187 8.36832719,6.72475781 9.19741395,6.92707031 Z" id="Shape" transform="translate(9.022550, 13.000000) rotate(-180.000000) translate(-9.022550, -13.000000) "></path>
                        </g>
                    </g>
                </g>
            </g>
        </g>
    </g>
</svg>