<svg width="14" height="11" viewBox="0 0 14 11" fill="none" xmlns="http://www.w3.org/2000/svg">
<path d="M9 5.87453L14 8.8125V2.8125L9 5.87453Z" fill="#F67000"/>
<path d="M0 2.8125V8.8125L5 5.87453L0 2.8125Z" fill="#F67000"/>
<path d="M13.1481 0.8125H0.851945C0.413676 0.8125 0.065872 1.11732 0 1.50981L7 5.8125L14 1.50981C13.9341 1.11732 13.5863 0.8125 13.1481 0.8125Z" fill="#F67000"/>
<path d="M8.48469 6.81333L7.24159 7.58758C7.1678 7.63327 7.08434 7.6557 7 7.6557C6.91566 7.6557 6.8322 7.63327 6.75841 7.58758L5.51531 6.8125L0 10.1114C0.0676456 10.506 0.41378 10.8125 0.850402 10.8125H13.1496C13.5862 10.8125 13.9324 10.506 14 10.1114L8.48469 6.81333Z" fill="#F67000"/>
</svg>
