<svg width="45" height="33" viewBox="0 0 45 33" fill="none" xmlns="http://www.w3.org/2000/svg">
<rect x="0.5" y="0.5" width="44" height="32" rx="7.5" stroke="#D9D9D9"/>
<mask id="path-2-inside-1" fill="white">
<path fill-rule="evenodd" clip-rule="evenodd" d="M27.6454 11.6001L33.9394 24.5632C34.2618 25.2274 33.7781 26 33.0398 26H22.2872C22.6015 25.4565 22.6649 24.7663 22.3543 24.1265L21.0593 21.4593L25.8462 11.6001C26.2108 10.8491 27.2807 10.8491 27.6454 11.6001ZM19.9476 21.4593L18.157 17.7713C17.7924 17.0203 16.7225 17.0203 16.3579 17.7713L13.0602 24.5632C12.7377 25.2274 13.2215 26 13.9598 26H18.7197C18.4055 25.4565 18.342 24.7663 18.6526 24.1265L19.9476 21.4593ZM20.5035 20.3145L19.0566 17.3345C18.3274 15.8326 16.1876 15.8326 15.4583 17.3345L12.1606 24.1265C11.5157 25.4548 12.4832 27 13.9598 27H20.4518H20.5551H33.0398C34.5164 27 35.4839 25.4548 34.8389 24.1265L28.5449 11.1633C27.8157 9.66135 25.6759 9.66136 24.9466 11.1633L20.5035 20.3145ZM20.4518 26C19.7135 26 19.2298 25.2274 19.5522 24.5632L20.5035 22.604L21.4547 24.5632C21.777 25.227 21.2941 25.999 20.5566 26C20.5561 26 20.5556 26 20.5551 26L20.4518 26Z"/>
</mask>
<path d="M33.9394 24.5632L34.8389 24.1265V24.1265L33.9394 24.5632ZM27.6454 11.6001L26.7458 12.0368L26.7458 12.0368L27.6454 11.6001ZM22.2872 26L21.4215 25.4995L20.5539 27H22.2872V26ZM22.3543 24.1265L23.2539 23.6897V23.6897L22.3543 24.1265ZM21.0593 21.4593L20.1597 21.0225L19.9476 21.4593L20.1597 21.896L21.0593 21.4593ZM25.8462 11.6001L24.9466 11.1633V11.1633L25.8462 11.6001ZM19.9476 21.4593L20.8472 21.896L21.0593 21.4593L20.8472 21.0225L19.9476 21.4593ZM18.157 17.7713L17.2575 18.2081V18.2081L18.157 17.7713ZM16.3579 17.7713L17.2575 18.2081V18.2081L16.3579 17.7713ZM13.0602 24.5632L12.1606 24.1265L12.1606 24.1265L13.0602 24.5632ZM18.7197 26V27H20.453L19.5854 25.4995L18.7197 26ZM18.6526 24.1265L17.7531 23.6897V23.6897L18.6526 24.1265ZM20.5035 20.3145L19.6039 20.7513L20.5035 22.604L21.403 20.7513L20.5035 20.3145ZM19.0566 17.3345L19.9562 16.8978L19.9562 16.8978L19.0566 17.3345ZM15.4583 17.3345L14.5587 16.8978V16.8978L15.4583 17.3345ZM12.1606 24.1265L13.0602 24.5632H13.0602L12.1606 24.1265ZM34.8389 24.1265L33.9394 24.5632L34.8389 24.1265ZM28.5449 11.1633L27.6454 11.6001V11.6001L28.5449 11.1633ZM24.9466 11.1633L24.0471 10.7265V10.7265L24.9466 11.1633ZM19.5522 24.5632L20.4518 25L19.5522 24.5632ZM20.4518 26L20.4518 25H20.4518V26ZM20.5035 22.604L21.403 22.1673L20.5035 20.3145L19.6039 22.1673L20.5035 22.604ZM21.4547 24.5632L22.3543 24.1265L22.3543 24.1265L21.4547 24.5632ZM20.5566 26V27L20.5579 27L20.5566 26ZM20.5551 26L20.5551 27H20.5551V26ZM34.8389 24.1265L28.5449 11.1633L26.7458 12.0368L33.0398 25L34.8389 24.1265ZM33.0398 27C34.5164 27 35.4839 25.4548 34.8389 24.1265L33.0398 25V25V27ZM22.2872 27H33.0398V25H22.2872V27ZM23.1529 26.5005C23.6221 25.6891 23.7191 24.648 23.2539 23.6897L21.4547 24.5632C21.6108 24.8846 21.5809 25.2238 21.4215 25.4995L23.1529 26.5005ZM23.2539 23.6897L21.9589 21.0225L20.1597 21.896L21.4547 24.5632L23.2539 23.6897ZM24.9466 11.1633L20.1597 21.0225L21.9589 21.896L26.7458 12.0368L24.9466 11.1633ZM28.5449 11.1633C27.8157 9.66136 25.6759 9.66135 24.9466 11.1633L26.7458 12.0368L26.7458 12.0368L28.5449 11.1633ZM20.8472 21.0225L19.0566 17.3345L17.2575 18.2081L19.0481 21.896L20.8472 21.0225ZM19.0566 17.3345C18.3274 15.8326 16.1876 15.8326 15.4583 17.3345L17.2575 18.2081L17.2575 18.2081L19.0566 17.3345ZM15.4583 17.3345L12.1606 24.1265L13.9598 25L17.2575 18.2081L15.4583 17.3345ZM12.1606 24.1265C11.5157 25.4548 12.4832 27 13.9598 27V25L13.9598 25L12.1606 24.1265ZM13.9598 27H18.7197V25H13.9598V27ZM17.7531 23.6897C17.2878 24.648 17.3849 25.6891 17.854 26.5005L19.5854 25.4995C19.426 25.2238 19.3962 24.8846 19.5522 24.5632L17.7531 23.6897ZM19.0481 21.0225L17.7531 23.6897L19.5522 24.5632L20.8472 21.896L19.0481 21.0225ZM21.403 19.8777L19.9562 16.8978L18.157 17.7713L19.6039 20.7513L21.403 19.8777ZM19.9562 16.8978C18.8623 14.6448 15.6526 14.6448 14.5587 16.8978L16.3579 17.7713C16.7225 17.0203 17.7924 17.0203 18.157 17.7713L19.9562 16.8978ZM14.5587 16.8978L11.2611 23.6897L13.0602 24.5632L16.3579 17.7713L14.5587 16.8978ZM11.2611 23.6897C10.2937 25.6822 11.7449 28 13.9598 28V26C13.2215 26 12.7377 25.2274 13.0602 24.5632L11.2611 23.6897ZM13.9598 28H20.4518V26H13.9598V28ZM20.4518 28H20.5551V26H20.4518V28ZM20.5551 28H33.0398V26H20.5551V28ZM33.0398 28C35.2547 28 36.7059 25.6822 35.7385 23.6897L33.9394 24.5632C34.2618 25.2274 33.7781 26 33.0398 26V28ZM35.7385 23.6897L29.4445 10.7265L27.6454 11.6001L33.9394 24.5632L35.7385 23.6897ZM29.4445 10.7265C28.3506 8.47361 25.1409 8.47362 24.0471 10.7265L25.8462 11.6001C26.2108 10.8491 27.2807 10.8491 27.6454 11.6001L29.4445 10.7265ZM24.0471 10.7265L19.6039 19.8777L21.403 20.7513L25.8462 11.6001L24.0471 10.7265ZM18.6526 24.1265C18.0077 25.4548 18.9752 27 20.4518 27V25H20.4518L18.6526 24.1265ZM19.6039 22.1673L18.6526 24.1265L20.4518 25L21.403 23.0408L19.6039 22.1673ZM22.3543 24.1265L21.403 22.1673L19.6039 23.0408L20.5551 25L22.3543 24.1265ZM20.5579 27C22.033 26.998 22.9988 25.4539 22.3543 24.1265L20.5551 25L20.5552 25L20.5579 27ZM20.5551 27C20.556 27 20.5567 27 20.5569 27C20.5572 27 20.5569 27 20.5566 27V25C20.5557 25 20.555 25 20.5548 25C20.5545 25 20.5548 25 20.5551 25V27ZM20.4518 27L20.5551 27L20.5552 25L20.4518 25L20.4518 27Z" fill="#0D253E" mask="url(#path-2-inside-1)"/>
<path d="M17.5 10.5C17.5 11.6046 16.6046 12.5 15.5 12.5C14.3954 12.5 13.5 11.6046 13.5 10.5C13.5 9.39543 14.3954 8.5 15.5 8.5C16.6046 8.5 17.5 9.39543 17.5 10.5Z" stroke="#0D253E"/>
</svg>
