<svg width="110" height="40" viewBox="0 0 110 40" fill="none" xmlns="http://www.w3.org/2000/svg">
<path fill-rule="evenodd" clip-rule="evenodd" d="M8.41667 13.2417L14.4407 13.2345L11.2834 6.2381L8.41667 13.2417ZM4.85056 21.9108L1.27173 21.909L9.79735 1.64355H16.7225L25.9348 21.909H18.2521L15.5525 15.9908H7.25946L4.85056 21.9108Z" fill="white"/>
<path fill-rule="evenodd" clip-rule="evenodd" d="M26.1636 0H31.6426V18.0382C31.6426 18.5109 31.6808 18.88 31.7571 19.1345C31.8334 19.3964 31.9715 19.5964 32.1767 19.7418C32.3784 19.8455 32.6836 19.8964 33.0905 19.8964H35.4104V21.9091H29.9677C28.676 21.9091 27.7168 21.6891 27.0955 21.2455C26.4724 20.8 26.1636 20.1127 26.1636 19.1836V0Z" fill="white"/>
<path fill-rule="evenodd" clip-rule="evenodd" d="M35.4885 0H40.9676V18.0382C40.9676 18.5109 41.0057 18.88 41.082 19.1345C41.1583 19.3964 41.2964 19.5964 41.5017 19.7418C41.7033 19.8455 42.0085 19.8964 42.4137 19.8964H44.7372V21.9091H39.2926C37.9992 21.9091 37.0418 21.6891 36.4205 21.2455C35.7974 20.8 35.4885 20.1127 35.4885 19.1836V0Z" fill="white"/>
<path fill-rule="evenodd" clip-rule="evenodd" d="M52.4999 18.3782L55.9643 16.611C56.3694 17.2291 56.7672 17.7582 57.1633 18.191C57.5557 18.6255 58.0389 18.9819 58.6075 19.26C59.1798 19.54 59.7956 19.6782 60.4551 19.6782C61.4451 19.6782 62.2263 19.4619 62.7949 19.0291C63.3672 18.5946 63.6524 17.9964 63.6524 17.2291C63.6524 16.4455 63.309 15.8673 62.6242 15.4964C62.2445 15.311 61.5832 15.011 60.6458 14.5964C60.0863 14.3491 59.4414 14.0819 58.702 13.7928C56.7236 13.0073 55.2648 12.2 54.3256 11.3746C53.3882 10.5473 52.9177 9.40186 52.9177 7.93459C52.9177 6.55095 53.2738 5.34186 53.9859 4.30732C54.6944 3.27459 55.7045 2.46914 57.0107 1.89095C58.3168 1.31459 59.7956 1.02368 61.4451 1.02368C63.4235 1.02368 65.053 1.34914 66.3338 2.00005C67.6182 2.65095 68.7645 3.65641 69.78 5.02186L67.0023 6.78732C66.3411 5.79459 65.6634 5.04732 64.964 4.54186C64.2664 4.03641 63.3708 3.78186 62.2808 3.78186C61.3162 3.78186 60.5931 4.00914 60.1117 4.46368C59.6303 4.91823 59.3869 5.54732 59.3869 6.35277C59.3869 7.07641 60.0608 7.73823 61.407 8.33641C62.7513 8.93641 64.0957 9.49459 65.44 10.011C66.7843 10.5273 67.9397 11.2146 68.9062 12.071C69.869 12.9291 70.3504 14.1219 70.3504 15.651C70.3504 17.0564 69.958 18.2637 69.1714 19.2764C68.7645 19.7928 68.3085 20.2491 67.8017 20.6382C67.2912 21.0328 66.6971 21.3637 66.0122 21.6328C64.6425 22.1691 63.1201 22.4364 61.4451 22.4364C59.3869 22.4364 57.632 22.1237 56.175 21.491C54.7144 20.8619 53.49 19.8237 52.4999 18.3782Z" fill="white"/>
<path fill-rule="evenodd" clip-rule="evenodd" d="M69.3221 10.7236V8.30542H83.4049V10.7236H79.1049V21.9091H73.6222V10.7236H69.3221Z" fill="white"/>
<path fill-rule="evenodd" clip-rule="evenodd" d="M92.4265 21.9091V8.30542H101.067C102.08 8.30542 103.012 8.47633 103.862 8.81815C104.713 9.16178 105.379 9.65087 105.863 10.2945C106.344 10.9345 106.584 11.6509 106.584 12.4363C106.584 14.3418 105.543 15.4927 103.463 15.8854L108.221 21.9091H102.055L98.2471 15.2163C100.153 15.2163 101.105 14.3491 101.105 12.6127C101.105 11.8509 100.85 11.2509 100.342 10.8163C99.8331 10.3818 99.2263 10.1654 98.5142 10.1654H97.9056V21.9091H92.4265Z" fill="white"/>
<path fill-rule="evenodd" clip-rule="evenodd" d="M86.2789 6.43091L88.795 11.5345L94.4194 12.3527L90.3501 16.3236L91.3111 21.9291L86.2789 19.2836L81.2485 21.9291L82.2096 16.3236L78.1366 12.3527L83.761 11.5345L86.2789 6.43091Z" fill="#F77100"/>
<path fill-rule="evenodd" clip-rule="evenodd" d="M55.8625 36.771H54.3619L51.3154 32.8982L49.9801 34.0801V36.771H48.8429V29.0073H49.9801V32.8564L54.1694 29.0073H55.7044L52.1056 32.1946L55.8625 36.771Z" fill="white"/>
<path fill-rule="evenodd" clip-rule="evenodd" d="M56.7 36.771H57.8081V31.151H56.7V36.771ZM56.7 30.0873H57.8081V29.0073H56.7V30.0873Z" fill="white"/>
<path fill-rule="evenodd" clip-rule="evenodd" d="M63.7087 33.4182C63.6179 32.8782 63.418 32.4746 63.1037 32.2055C62.7931 31.9364 62.4098 31.8037 61.9574 31.8037C61.5142 31.8037 61.1363 31.9364 60.8202 32.2019C60.5041 32.471 60.3024 32.8746 60.2171 33.4182H63.7087ZM62.0791 36.9019C61.1653 36.9019 60.4314 36.6437 59.8773 36.1273C59.3214 35.6091 59.0453 34.8891 59.0453 33.9637C59.0453 33.0455 59.3123 32.3273 59.8501 31.8055C60.386 31.2855 61.089 31.0237 61.9574 31.0237C62.8439 31.0237 63.5524 31.28 64.0811 31.7928C64.6097 32.3037 64.875 33.0273 64.875 33.9637V34.2019H60.1934C60.2388 34.851 60.4369 35.3346 60.7875 35.6491C61.1363 35.9619 61.5668 36.1182 62.0791 36.1182C62.4661 36.1182 62.8149 36.0291 63.1255 35.8528C63.4362 35.6728 63.5979 35.42 63.6142 35.091H64.7569C64.6715 35.671 64.3808 36.1182 63.8867 36.4328C63.3926 36.7455 62.7913 36.9019 62.0791 36.9019Z" fill="white"/>
<path fill-rule="evenodd" clip-rule="evenodd" d="M71.137 31.1509L68.7881 36.7709H67.8034L65.4545 31.1509H66.6498L68.2957 35.5472L69.9435 31.1509H71.137Z" fill="white"/>
<path fill-rule="evenodd" clip-rule="evenodd" d="M76.5815 32.5291H79.1194C79.8261 32.5291 80.3384 32.4291 80.6563 32.2273C80.9742 32.0255 81.1341 31.6782 81.1341 31.1837C81.1341 30.3 80.5201 29.86 79.2938 29.86H76.5815V32.5291ZM82.6038 36.771H81.3739L80.5655 34.7001C80.422 34.3328 80.1804 34.0328 79.8443 33.8001C79.51 33.5673 79.1231 33.4491 78.6853 33.4491H76.5816V36.771H75.4443V29.0073H79.2484C79.9115 29.0073 80.4547 29.0655 80.8762 29.1837C81.2994 29.2982 81.641 29.5437 81.908 29.9182C82.1733 30.2928 82.3059 30.7146 82.3059 31.1837C82.3059 31.7201 82.1351 32.1691 81.7899 32.5291C81.4466 32.8891 80.9761 33.1237 80.3784 33.2328V33.2546C80.9761 33.4273 81.4302 33.8964 81.7445 34.6582L82.6038 36.771Z" fill="white"/>
<path fill-rule="evenodd" clip-rule="evenodd" d="M88.2374 33.4182C88.1465 32.8782 87.9467 32.4746 87.6324 32.2055C87.3199 31.9364 86.9384 31.8037 86.4843 31.8037C86.0428 31.8037 85.6631 31.9364 85.347 32.2019C85.0309 32.471 84.8293 32.8746 84.7439 33.4182H88.2374ZM86.6078 36.9019C85.694 36.9019 84.9583 36.6437 84.4042 36.1273C83.8483 35.6091 83.5721 34.8891 83.5721 33.9637C83.5721 33.0455 83.841 32.3273 84.3769 31.8055C84.9147 31.2855 85.6159 31.0237 86.4843 31.0237C87.3708 31.0237 88.0793 31.28 88.6079 31.7928C89.1384 32.3037 89.4036 33.0273 89.4036 33.9637V34.2019H84.7203C84.7675 34.851 84.9655 35.3346 85.3161 35.6491C85.6649 35.9619 86.0955 36.1182 86.6078 36.1182C86.9929 36.1182 87.3435 36.0291 87.6542 35.8528C87.963 35.6728 88.1265 35.42 88.1429 35.091H89.2856C89.1984 35.671 88.9095 36.1182 88.4154 36.4328C87.9212 36.7455 87.3181 36.9019 86.6078 36.9019Z" fill="white"/>
<path fill-rule="evenodd" clip-rule="evenodd" d="M94.5756 35.2928V34.0473H93.8199C92.2194 34.0473 91.4182 34.4419 91.4182 35.2291C91.4182 35.5164 91.5345 35.7346 91.7688 35.8891C92.0032 36.0419 92.3211 36.1182 92.719 36.1182C93.0823 36.1182 93.4329 36.0437 93.7744 35.8982C94.1142 35.7491 94.3812 35.5473 94.5756 35.2928ZM94.5756 36.1928C94.0143 36.6655 93.2894 36.9019 92.4029 36.9019C91.7852 36.9019 91.2784 36.751 90.8787 36.4491C90.4808 36.1491 90.281 35.7582 90.281 35.2819C90.281 33.9691 91.5327 33.3128 94.0361 33.3128H94.5756C94.5756 32.9091 94.552 32.6182 94.5066 32.4364C94.4593 32.2546 94.3285 32.1037 94.1142 31.9837C93.898 31.8637 93.5565 31.8037 93.0878 31.8037C92.1031 31.8037 91.5963 32.12 91.5654 32.7564H90.4627C90.5444 31.6037 91.44 31.0237 93.1459 31.0237C93.9434 31.0237 94.5647 31.1691 95.0098 31.4546C95.4549 31.7382 95.6783 32.3019 95.6783 33.1382V36.771H94.5756V36.1928Z" fill="white"/>
<path fill-rule="evenodd" clip-rule="evenodd" d="M97.3134 36.771H98.4198V29.0073H97.3134V36.771Z" fill="white"/>
<path fill-rule="evenodd" clip-rule="evenodd" d="M102.464 36.7801C102.22 36.8237 101.957 36.8456 101.672 36.8456C101.219 36.8456 100.887 36.771 100.676 36.6237C100.465 36.4783 100.334 36.2892 100.284 36.0619C100.233 35.831 100.207 35.5201 100.207 35.1237V31.9365H99.4407V31.151H100.207V29.7546H101.308V31.151H102.316V31.9365H101.308V35.1765C101.308 35.5619 101.363 35.8056 101.47 35.9092C101.577 36.0146 101.724 36.0656 101.911 36.0656C102.104 36.0656 102.287 36.051 102.464 36.0237V36.7801Z" fill="white"/>
<path fill-rule="evenodd" clip-rule="evenodd" d="M103.735 38.1254C104.28 38.1254 104.729 37.6745 105.076 36.7709L102.727 31.1509H103.922L105.568 35.5472L107.214 31.1509H108.41L106.061 36.7709C105.834 37.3072 105.643 37.7218 105.485 38.0127C105.325 38.3036 105.118 38.5491 104.863 38.7472C104.607 38.9472 104.293 39.0472 103.922 39.0472C103.644 39.0472 103.406 39.0236 103.207 38.9745V38.0509C103.379 38.1018 103.555 38.1254 103.735 38.1254Z" fill="white"/>
<path fill-rule="evenodd" clip-rule="evenodd" d="M0 25.7727H109.002V25.0054H0V25.7727Z" fill="#F77100"/>
</svg>
