<svg width="16" height="16" viewBox="0 0 16 16" fill="none" xmlns="http://www.w3.org/2000/svg">
<path fill-rule="evenodd" clip-rule="evenodd" d="M7.99863 10.7812C7.85441 10.7808 7.71847 10.7139 7.62966 10.6C7.59031 10.5492 6.65463 9.34066 5.76841 7.8415C4.74622 6.09147 4.25 4.75388 4.25 3.75C4.25 1.68228 5.93228 0 8 0C10.0677 0 11.75 1.68228 11.75 3.75C11.75 4.86875 11.1046 6.46634 9.83197 8.49884C9.08625 9.68809 8.39734 10.5656 8.36803 10.6027C8.27925 10.7153 8.14375 10.7812 8 10.7812H7.99863ZM9.875 3.75C9.875 2.71591 9.03409 1.875 8 1.875C6.96591 1.875 6.125 2.71591 6.125 3.75C6.125 4.78409 6.96591 5.625 8 5.625C9.03409 5.625 9.875 4.78409 9.875 3.75Z" fill="#0B233C"/>
<path d="M8 4.6875C8.51777 4.6875 8.9375 4.26777 8.9375 3.75C8.9375 3.23223 8.51777 2.8125 8 2.8125C7.48223 2.8125 7.0625 3.23223 7.0625 3.75C7.0625 4.26777 7.48223 4.6875 8 4.6875Z" fill="#0B233C"/>
<path d="M15.7523 6.61816C15.6004 6.53622 15.415 6.54538 15.2712 6.6415L13.1875 8.03066V15.7824L15.7912 14.0465C15.9217 13.9596 16 13.8131 16 13.6565V7.03153C16 6.8585 15.9048 6.69966 15.7523 6.61816Z" fill="#0B233C"/>
<path d="M0 8.90615V15.5311C0 15.7042 0.0952188 15.863 0.247656 15.9445C0.399625 16.0265 0.5855 16.0164 0.728781 15.9212L2.8125 14.5319V6.78027L0.20875 8.51612C0.0782813 8.60309 0 8.74959 0 8.90615Z" fill="#0B233C"/>
<path d="M10.6267 8.99687C9.84525 10.2429 9.13344 11.1465 9.10369 11.1845C8.83591 11.5242 8.43353 11.7192 8.00003 11.7192H7.99728C7.56103 11.7178 7.15775 11.5201 6.88994 11.1767C6.78513 11.0412 5.85356 9.82818 4.96138 8.31893C4.62422 7.74174 4.34763 7.21193 4.11647 6.71446L3.78125 6.64746V14.2283L12.2188 15.9159V8.33381L11.1524 8.11859C10.9894 8.40281 10.8161 8.69425 10.6267 8.99687Z" fill="#0B233C"/>
</svg>
