<svg width="26" height="27" viewBox="0 0 26 27" fill="none" xmlns="http://www.w3.org/2000/svg">
<path fill-rule="evenodd" clip-rule="evenodd" d="M14.9771 24.8555C13.6143 25.2883 11.9154 25.5 9.72109 25.5C5.56905 25.5 0 24.8006 0 18.75C0 15.1877 1.96355 11.791 4.85183 9.91523C4.6515 9.65977 4.51336 9.35117 4.51336 9C4.51336 8.17148 5.17944 7.5 6.00128 7.5H13.4409C14.2627 7.5 14.9288 8.17148 14.9288 9C14.9288 9.35195 14.7903 9.66152 14.5888 9.91738C15.0848 10.2395 15.5575 10.6055 16 11.0139C15.3539 11.492 14.9288 12.257 14.9288 13.125C14.9288 13.8598 15.2318 14.523 15.7162 15C15.2318 15.477 14.9288 16.1402 14.9288 16.875C14.9288 17.6098 15.2318 18.273 15.7162 18.75C15.2318 19.227 14.9288 19.8902 14.9288 20.625C14.9288 21.3598 15.2318 22.023 15.7162 22.5C15.2318 22.977 14.9288 23.6402 14.9288 24.375C14.9288 24.5395 14.9482 24.6992 14.9771 24.8555ZM7.48126 15.9697C7.48126 17.2105 8.48232 18.2197 9.71314 18.2197C10.1235 18.2197 10.4571 18.5559 10.4571 18.9697C10.4571 19.3836 10.1235 19.7197 9.71314 19.7197C9.30261 19.7197 8.96918 19.3836 8.96918 18.9697C8.96918 18.5553 8.63634 18.2197 8.22522 18.2197C7.81391 18.2197 7.48126 18.5553 7.48126 18.9697C7.48126 19.9492 8.10898 20.7758 8.97713 21.084V21.75C8.97713 22.1645 9.30997 22.5 9.72109 22.5C10.1322 22.5 10.465 22.1645 10.465 21.75V21.0791C11.3251 20.7662 11.945 19.9432 11.945 18.9697C11.945 17.7291 10.9438 16.7197 9.71314 16.7197C9.30261 16.7197 8.96918 16.3836 8.96918 15.9697C8.96918 15.5559 9.30261 15.2197 9.71314 15.2197C10.1235 15.2197 10.4571 15.5559 10.4571 15.9697C10.4571 16.3844 10.7898 16.7197 11.2011 16.7197C11.6122 16.7197 11.945 16.3844 11.945 15.9697C11.945 14.9963 11.3251 14.1732 10.465 13.8605V12.75C10.465 12.3355 10.1322 12 9.72109 12C9.30997 12 8.97713 12.3355 8.97713 12.75V13.8555C8.10898 14.1639 7.48126 14.9902 7.48126 15.9697Z" fill="white"/>
<path d="M24.8812 24H18.1188C17.5009 24 17 24.4477 17 25C17 25.5523 17.5009 26 18.1188 26H24.8812C25.4991 26 26 25.5523 26 25C26 24.4477 25.4991 24 24.8812 24Z" fill="white"/>
<path d="M24.8812 20H18.1188C17.5009 20 17 20.4477 17 21C17 21.5523 17.5009 22 18.1188 22H24.8812C25.4991 22 26 21.5523 26 21C26 20.4477 25.4991 20 24.8812 20Z" fill="white"/>
<path d="M24.8812 16.5H18.1188C17.5009 16.5 17 16.9477 17 17.5C17 18.0523 17.5009 18.5 18.1188 18.5H24.8812C25.4991 18.5 26 18.0523 26 17.5C26 16.9477 25.4991 16.5 24.8812 16.5Z" fill="white"/>
<path d="M24.8812 12.5H18.1188C17.5009 12.5 17 12.9477 17 13.5C17 14.0523 17.5009 14.5 18.1188 14.5H24.8812C25.4991 14.5 26 14.0523 26 13.5C26 12.9477 25.4991 12.5 24.8812 12.5Z" fill="white"/>
<path d="M11.7125 1.97541C11.3869 1.1186 10.5231 0.5 9.5 0.5C8.47571 0.5 7.60181 1.11668 7.27709 1.97541H4.78572C4.53323 1.97541 4.29609 2.08914 4.14815 2.28163C4.00083 2.47394 3.96011 2.72176 4.04073 2.94653L5.26738 6.5H13.7328L14.9593 2.94653C15.0399 2.72176 14.9992 2.47394 14.8518 2.28163C14.7039 2.08914 14.4668 1.97541 14.2143 1.97541H11.7125Z" fill="white"/>
</svg>
