<svg width="20" height="20" viewBox="0 0 20 20" fill="none" xmlns="http://www.w3.org/2000/svg">
<path d="M19.5 4H12.8246V14.8C12.8246 15.237 12.706 15.6467 12.5 16H19.5L17.1595 10L19.5 4Z" fill="#F77100"/>
<path d="M11.3889 14H7.5C7.5 15.1028 8.49689 16 9.72222 16H11.3889C12.0016 16 12.5 15.5514 12.5 15C12.5 14.4486 12.0016 14 11.3889 14Z" fill="#F77100"/>
<path d="M10.1562 1H2.5V12.6856H11.3281C11.7549 12.6856 12.155 12.8004 12.5 13V3.33712C12.5 2.04843 11.4486 1 10.1562 1Z" fill="#F77100"/>
<rect x="0.5" width="1" height="20" fill="#F77100"/>
</svg>
