<svg width="13" height="13" viewBox="0 0 13 13" fill="none" xmlns="http://www.w3.org/2000/svg">
<path fill-rule="evenodd" clip-rule="evenodd" d="M9.48102 0H3.51898C1.57858 0 0 1.57858 0 3.51898V9.48112C0 11.4214 1.57858 13 3.51898 13H9.48112C11.4214 13 13 11.4214 13 9.48112V3.51898C13 1.57858 11.4214 0 9.48102 0ZM6.5 10C4.57006 10 3 8.42994 3 6.5C3 4.57006 4.57006 3 6.5 3C8.42994 3 10 4.57006 10 6.5C10 8.42994 8.42994 10 6.5 10ZM9 3.00005C9 3.55148 9.44851 4 9.99995 4C10.5514 4 11 3.55148 11 3.00005C11 2.44861 10.5514 2 9.99995 2C9.44851 2 9 2.44861 9 3.00005Z" fill="#0D253E"/>
</svg>
