<svg width="132" height="48" viewBox="0 0 132 48" fill="none" xmlns="http://www.w3.org/2000/svg">
<path fill-rule="evenodd" clip-rule="evenodd" d="M10.1154 15.8902L17.3553 15.8815L13.5607 7.48587L10.1154 15.8902ZM5.82952 26.2931L1.52835 26.291L11.7747 1.97241H20.0976L31.1693 26.291H21.936L18.6915 19.1891H8.72462L5.82952 26.2931V26.2931Z" fill="#0D253E"/>
<path fill-rule="evenodd" clip-rule="evenodd" d="M31.4443 0H38.0293V21.6458C38.0293 22.2131 38.0751 22.656 38.1668 22.9615C38.2585 23.2756 38.4245 23.5156 38.6712 23.6902C38.9135 23.8145 39.2803 23.8756 39.7694 23.8756H42.5575V26.2909H36.0162C34.4639 26.2909 33.3111 26.0269 32.5644 25.4945C31.8155 24.96 31.4443 24.1353 31.4443 23.0204V0" fill="#0D253E"/>
<path fill-rule="evenodd" clip-rule="evenodd" d="M42.6514 0H49.2363V21.6458C49.2363 22.2131 49.2822 22.656 49.3739 22.9615C49.4656 23.2756 49.6315 23.5156 49.8782 23.6902C50.1206 23.8145 50.4874 23.8756 50.9742 23.8756H53.7667V26.2909H47.2233C45.6687 26.2909 44.5181 26.0269 43.7714 25.4945C43.0225 24.96 42.6514 24.1353 42.6514 23.0204V0" fill="#0D253E"/>
<path fill-rule="evenodd" clip-rule="evenodd" d="M63.0961 22.0537L67.2597 19.933C67.7466 20.6748 68.2248 21.3097 68.7007 21.829C69.1723 22.3505 69.7531 22.7781 70.4365 23.1119C71.1242 23.4479 71.8644 23.6137 72.6569 23.6137C73.8469 23.6137 74.7857 23.3541 75.4691 22.8348C76.1568 22.3134 76.4996 21.5955 76.4996 20.6748C76.4996 19.7345 76.087 19.0406 75.2638 18.5955C74.8075 18.373 74.0128 18.013 72.8862 17.5155C72.2137 17.2188 71.4386 16.8981 70.55 16.5512C68.1724 15.6086 66.4192 14.6399 65.2904 13.6494C64.1638 12.6566 63.5983 11.2821 63.5983 9.52136C63.5983 7.861 64.0262 6.41009 64.8821 5.16864C65.7336 3.92936 66.9475 2.96282 68.5173 2.269C70.0872 1.57736 71.8644 1.22827 73.8469 1.22827C76.2245 1.22827 78.183 1.61882 79.7222 2.39991C81.2658 3.181 82.6435 4.38754 83.864 6.02609L80.5257 8.14464C79.7309 6.95336 78.9166 6.05664 78.076 5.45009C77.2376 4.84354 76.1612 4.53809 74.8512 4.53809C73.6918 4.53809 72.8229 4.81082 72.2443 5.35627C71.6657 5.90173 71.3731 6.65664 71.3731 7.62318C71.3731 8.49154 72.1832 9.28573 73.801 10.0035C75.4167 10.7235 77.0323 11.3934 78.648 12.013C80.2637 12.6326 81.6523 13.4574 82.8138 14.485C83.971 15.5148 84.5496 16.9461 84.5496 18.781C84.5496 20.4675 84.078 21.9163 83.1326 23.1315C82.6435 23.7512 82.0955 24.2988 81.4863 24.7657C80.8728 25.2392 80.1589 25.6363 79.3358 25.9592C77.6895 26.6028 75.8599 26.9235 73.8469 26.9235C71.3731 26.9235 69.264 26.5483 67.513 25.789C65.7576 25.0341 64.286 23.7883 63.0961 22.0537" fill="#0D253E"/>
<path fill-rule="evenodd" clip-rule="evenodd" d="M83.3138 12.8684V9.96655H100.239V12.8684H95.0711V26.2909H88.4818V12.8684H83.3138" fill="#0D253E"/>
<path fill-rule="evenodd" clip-rule="evenodd" d="M111.081 26.2909V9.96655H121.465C122.684 9.96655 123.804 10.1716 124.826 10.5818C125.847 10.9942 126.649 11.5811 127.229 12.3535C127.808 13.1215 128.096 13.9811 128.096 14.9236C128.096 17.2102 126.845 18.5913 124.345 19.0626L130.063 26.2909H122.653L118.077 18.2596C120.367 18.2596 121.511 17.2189 121.511 15.1353C121.511 14.2211 121.206 13.5011 120.594 12.9796C119.983 12.4582 119.254 12.1986 118.398 12.1986H117.666V26.2909H111.081" fill="#0D253E"/>
<path fill-rule="evenodd" clip-rule="evenodd" d="M103.693 7.71704L106.717 13.8414L113.477 14.8232L108.586 19.5883L109.741 26.3149L103.693 23.1403L97.6474 26.3149L98.8024 19.5883L93.9073 14.8232L100.667 13.8414L103.693 7.71704Z" fill="#F77100"/>
<path fill-rule="evenodd" clip-rule="evenodd" d="M67.1375 44.1252H65.334L61.6726 39.4779L60.0678 40.8961V44.1252H58.7011V34.8088H60.0678V39.4277L65.1026 34.8088H66.9475L62.6223 38.6336L67.1375 44.1252" fill="#0D253E"/>
<path fill-rule="evenodd" clip-rule="evenodd" d="M68.144 44.1252H69.4758V37.3812H68.144V44.1252ZM68.144 36.1048H69.4758V34.8088H68.144V36.1048Z" fill="#0D253E"/>
<path fill-rule="evenodd" clip-rule="evenodd" d="M76.5673 40.1017C76.4582 39.4537 76.218 38.9694 75.8403 38.6465C75.4669 38.3235 75.0063 38.1643 74.4626 38.1643C73.9299 38.1643 73.4757 38.3235 73.0958 38.6421C72.7159 38.965 72.4736 39.4494 72.371 40.1017H76.5673ZM74.6089 44.2821C73.5107 44.2821 72.6286 43.9723 71.9627 43.3526C71.2946 42.7308 70.9627 41.8668 70.9627 40.7563C70.9627 39.6545 71.2837 38.7926 71.9299 38.1665C72.574 37.5425 73.419 37.2283 74.4626 37.2283C75.5281 37.2283 76.3796 37.5359 77.0149 38.1512C77.6503 38.7643 77.969 39.6326 77.969 40.7563V41.0421H72.3426C72.3972 41.821 72.6351 42.4014 73.0565 42.7788C73.4757 43.1541 73.9932 43.3417 74.6089 43.3417C75.0739 43.3417 75.4931 43.2348 75.8665 43.0232C76.2398 42.8072 76.4341 42.5039 76.4538 42.109H77.8271C77.7245 42.805 77.3752 43.3417 76.7813 43.7192C76.1874 44.0945 75.4647 44.2821 74.6089 44.2821V44.2821Z" fill="#0D253E"/>
<path fill-rule="evenodd" clip-rule="evenodd" d="M85.495 37.3811L82.6719 44.1251H81.4886L78.6655 37.3811H80.1022L82.0803 42.6567L84.0606 37.3811H85.495" fill="#0D253E"/>
<path fill-rule="evenodd" clip-rule="evenodd" d="M92.0384 39.035H95.0885C95.9378 39.035 96.5535 38.915 96.9356 38.6728C97.3177 38.4307 97.5098 38.0139 97.5098 37.4205C97.5098 36.3601 96.7718 35.8321 95.2981 35.8321H92.0384V39.035ZM99.2761 44.1252H97.798L96.8264 41.6401C96.654 41.1994 96.3636 40.8394 95.9597 40.5601C95.5579 40.2808 95.0929 40.139 94.5667 40.139H92.0384V44.1252H90.6716V34.8088H95.2435C96.0404 34.8088 96.6933 34.8787 97.1998 35.0205C97.7085 35.1579 98.119 35.4525 98.4399 35.9019C98.7587 36.3514 98.9181 36.8576 98.9181 37.4205C98.9181 38.0641 98.7128 38.603 98.298 39.035C97.8854 39.467 97.3199 39.7485 96.6016 39.8794V39.9056C97.3199 40.1128 97.8657 40.6757 98.2434 41.5899L99.2761 44.1252V44.1252Z" fill="#0D253E"/>
<path fill-rule="evenodd" clip-rule="evenodd" d="M106.047 40.1017C105.938 39.4537 105.697 38.9694 105.32 38.6465C104.944 38.3235 104.486 38.1643 103.94 38.1643C103.409 38.1643 102.953 38.3235 102.573 38.6421C102.193 38.965 101.951 39.4494 101.848 40.1017H106.047ZM104.088 44.2821C102.99 44.2821 102.106 43.9723 101.44 43.3526C100.772 42.7308 100.44 41.8668 100.44 40.7563C100.44 39.6545 100.763 38.7926 101.407 38.1665C102.053 37.5425 102.896 37.2283 103.94 37.2283C105.005 37.2283 105.857 37.5359 106.492 38.1512C107.13 38.7643 107.448 39.6326 107.448 40.7563V41.0421H101.82C101.877 41.821 102.114 42.4014 102.536 42.7788C102.955 43.1541 103.473 43.3417 104.088 43.3417C104.551 43.3417 104.972 43.2348 105.346 43.0232C105.717 42.8072 105.913 42.5039 105.933 42.109H107.306C107.202 42.805 106.855 43.3417 106.261 43.7192C105.667 44.0945 104.942 44.2821 104.088 44.2821V44.2821Z" fill="#0D253E"/>
<path fill-rule="evenodd" clip-rule="evenodd" d="M113.664 42.3512V40.8566H112.756C110.833 40.8566 109.87 41.3301 109.87 42.2748C109.87 42.6195 110.009 42.8814 110.291 43.0668C110.573 43.2501 110.955 43.3417 111.433 43.3417C111.87 43.3417 112.291 43.2523 112.701 43.0777C113.11 42.8988 113.431 42.6566 113.664 42.3512ZM113.664 43.4312C112.99 43.9985 112.119 44.2821 111.053 44.2821C110.311 44.2821 109.702 44.101 109.221 43.7388C108.743 43.3788 108.503 42.9097 108.503 42.3381C108.503 40.7628 110.007 39.9752 113.016 39.9752H113.664C113.664 39.4908 113.636 39.1417 113.581 38.9235C113.525 38.7054 113.367 38.5243 113.11 38.3803C112.85 38.2363 112.439 38.1643 111.876 38.1643C110.693 38.1643 110.084 38.5439 110.047 39.3075H108.721C108.819 37.9243 109.896 37.2283 111.946 37.2283C112.905 37.2283 113.651 37.4028 114.186 37.7454C114.721 38.0857 114.99 38.7621 114.99 39.7657V44.125H113.664V43.4312V43.4312Z" fill="#0D253E"/>
<path fill-rule="evenodd" clip-rule="evenodd" d="M116.955 44.1252H118.284V34.8088H116.955V44.1252Z" fill="#0D253E"/>
<path fill-rule="evenodd" clip-rule="evenodd" d="M123.144 44.1361C122.852 44.1885 122.535 44.2147 122.192 44.2147C121.649 44.2147 121.249 44.1252 120.996 43.9485C120.743 43.7739 120.585 43.547 120.524 43.2743C120.463 42.9972 120.433 42.6241 120.433 42.1485V38.3237H119.511V37.3812H120.433V35.7056H121.756V37.3812H122.967V38.3237H121.756V42.2117C121.756 42.6743 121.821 42.9667 121.95 43.091C122.079 43.2176 122.256 43.2787 122.481 43.2787C122.712 43.2787 122.933 43.2612 123.144 43.2285V44.1361" fill="#0D253E"/>
<path fill-rule="evenodd" clip-rule="evenodd" d="M124.673 45.7506C125.328 45.7506 125.867 45.2095 126.284 44.1251L123.461 37.3811H124.898L126.876 42.6567L128.854 37.3811H130.29L127.467 44.1251C127.194 44.7687 126.965 45.2662 126.775 45.6153C126.583 45.9644 126.334 46.2589 126.029 46.4967C125.721 46.7367 125.343 46.8567 124.898 46.8567C124.564 46.8567 124.278 46.8284 124.037 46.7695V45.6611C124.245 45.7222 124.457 45.7506 124.673 45.7506" fill="#0D253E"/>
<path fill-rule="evenodd" clip-rule="evenodd" d="M0 30.9273H131.002V30.0065H0V30.9273Z" fill="#F77100"/>
</svg>
