<svg width="18" height="26" viewBox="0 0 18 26" fill="none" xmlns="http://www.w3.org/2000/svg">
<path fill-rule="evenodd" clip-rule="evenodd" d="M5.01844 15.2852L0.522583 0H17.5226L13.0267 15.2852H16.4689L9.02256 26L1.57631 15.2852H5.01844ZM9.19806 6.92722L9.19745 6.92707C8.36836 6.72476 8.27325 6.64442 8.27325 6.14453C8.27325 5.72427 8.60914 5.38281 9.02256 5.38281C9.43598 5.38281 9.77187 5.72427 9.77187 6.14453H11.2705C11.2705 5.15277 10.6422 4.31519 9.77187 3.99968V3.09766H8.27325V3.99968C7.40295 4.31519 6.77463 5.15277 6.77463 6.14453C6.77463 7.90181 8.07135 8.21898 8.84705 8.40872L8.84767 8.40887C9.67676 8.61118 9.77187 8.69152 9.77187 9.19141C9.77187 9.61167 9.43598 9.95312 9.02256 9.95312C8.60914 9.95312 8.27325 9.61167 8.27325 9.19141H6.77463C6.77463 10.1832 7.40295 11.0208 8.27325 11.3363V12.2383H9.77187V11.3363C10.6422 11.0208 11.2705 10.1832 11.2705 9.19141C11.2705 7.43413 9.97377 7.11696 9.19806 6.92722Z" fill="white"/>
</svg>
