<svg width="16" height="16" viewBox="0 0 16 16" fill="none" xmlns="http://www.w3.org/2000/svg">
<g opacity="0.251604">
<path d="M12.6666 3.33333V1.83333C12.6666 0.822 11.8446 0 10.8333 0H5.16659C4.15525 0 3.33325 0.822 3.33325 1.83333V3.33333H12.6666Z" fill="#0D253E" fill-opacity="0.25"/>
<path d="M14.1667 4H1.83333C0.822 4 0 4.822 0 5.83333V10.1667C0 11.178 0.822 12 1.83333 12H2.66667V9.16667C2.66667 8.52333 3.19 8 3.83333 8H12.1667C12.81 8 13.3333 8.52333 13.3333 9.16667V12H14.1667C15.178 12 16 11.178 16 10.1667V5.83333C16 4.822 15.178 4 14.1667 4Z" fill="#0D253E" fill-opacity="0.25"/>
<path fill-rule="evenodd" clip-rule="evenodd" d="M12.1666 8.66675H3.83325C3.55725 8.66675 3.33325 8.89075 3.33325 9.16675V14.1668C3.33325 15.1781 4.15525 16.0001 5.16659 16.0001H10.8333C11.8446 16.0001 12.6666 15.1781 12.6666 14.1668V9.16675C12.6666 8.89075 12.4426 8.66675 12.1666 8.66675ZM5.83325 11.0001H6.83325C7.10925 11.0001 7.33325 11.2241 7.33325 11.5001C7.33325 11.7761 7.10925 12.0001 6.83325 12.0001H5.83325C5.55725 12.0001 5.33325 11.7761 5.33325 11.5001C5.33325 11.2241 5.55725 11.0001 5.83325 11.0001ZM5.83325 14.0001H9.49993C9.77593 14.0001 9.99993 13.7761 9.99993 13.5001C9.99993 13.2241 9.77593 13.0001 9.49993 13.0001H5.83325C5.55725 13.0001 5.33325 13.2241 5.33325 13.5001C5.33325 13.7761 5.55725 14.0001 5.83325 14.0001Z" fill="#0D253E" fill-opacity="0.25"/>
</g>
</svg>
