<svg width="12" height="10" viewBox="0 0 12 10" fill="none" xmlns="http://www.w3.org/2000/svg">
<path d="M4.4768 10C3.95789 10 3.42377 9.95721 2.88645 9.87145C1.94008 9.72025 0.982079 9.21622 0.710993 9.0653L0 8.66949L0.769769 8.41174C1.61122 8.13004 2.12309 7.95525 2.75672 7.68156C2.12227 7.36872 1.63329 6.80596 1.39791 6.07848L1.21883 5.52495L1.36568 5.54779C1.22643 5.40489 1.11648 5.25984 1.03124 5.12794C0.728113 4.65914 0.567623 4.08631 0.601772 3.59542L0.635463 3.11227L0.919549 3.22432C0.799707 2.99388 0.713099 2.74779 0.662196 2.48985C0.538143 1.86081 0.641963 1.19253 0.954613 0.608144L1.20208 0.145593L1.53304 0.550348C2.57975 1.83061 3.90552 2.59006 5.47902 2.81239C5.41475 2.3613 5.46291 1.92597 5.6223 1.53576C5.80788 1.08141 6.13801 0.696142 6.57673 0.42152C7.06397 0.116603 7.65485 -0.0311488 8.24051 0.0054861C8.86187 0.0443582 9.42601 0.281413 9.87407 0.691481C10.0929 0.633592 10.2541 0.571788 10.472 0.488265C10.6031 0.43802 10.7518 0.38097 10.9378 0.315717L11.6234 0.0752135L11.1763 1.37524C11.2058 1.37272 11.2362 1.37058 11.268 1.36918L12 1.33543L11.5673 1.93753C11.5425 1.97202 11.5362 1.98181 11.5274 1.99533C11.4925 2.04884 11.4491 2.11539 10.8552 2.92285C10.7066 3.12504 10.6323 3.38839 10.6461 3.6645C10.6988 4.71377 10.5723 5.6631 10.2701 6.48604C9.9843 7.2646 9.54137 7.9326 8.95379 8.4715C8.22668 9.1382 7.29954 9.59469 6.19798 9.8281C5.65764 9.94258 5.07738 10 4.4768 10Z" fill="#0D253E"/>
</svg>
