<svg width="13" height="9" viewBox="0 0 13 9" fill="none" xmlns="http://www.w3.org/2000/svg">
<path fill-rule="evenodd" clip-rule="evenodd" d="M10.933 0.0752727C11.7122 0.119455 12.0949 0.235636 12.4475 0.867273C12.8148 1.49809 13 2.58464 13 4.49836V4.50082V4.50491C13 6.40964 12.8148 7.50436 12.4483 8.12864C12.0957 8.76027 11.713 8.87482 10.9338 8.928C10.1546 8.973 8.19731 9 6.50163 9C4.80269 9 2.84456 8.973 2.06619 8.92718C1.28862 8.874 0.905937 8.75945 0.550062 8.12782C0.186875 7.50355 0 6.40882 0 4.50409V4.50245V4.5V4.49755C0 2.58464 0.186875 1.49809 0.550062 0.867273C0.905937 0.234818 1.28944 0.119455 2.067 0.0744545C2.84456 0.0220909 4.80269 0 6.50163 0C8.19731 0 10.1546 0.0220909 10.933 0.0752727ZM9 4.5L5 2V7L9 4.5Z" fill="#0D253E"/>
</svg>
